<?xml version="1.0" encoding="UTF-8"?>
<svg id="Layer_1" data-name="Layer 1" xmlns="http://www.w3.org/2000/svg" viewBox="0 0 20 20">
  <defs>
    <style>
      .cls-1 {
        fill-rule: evenodd;
      }
    </style>
  </defs>
  <path class="cls-1" d="M3.75,5c1.46-1.82,3.69-2.99,6.2-3,.03,0,.07,0,.1,0,2.13.01,4.07.86,5.5,2.24.08.08.16.16.24.24,1.34,1.41,2.17,3.31,2.2,5.4,0,.08,0,.17,0,.25-.03,2.07-.86,3.96-2.18,5.36-.11.11-.21.22-.33.33-1.41,1.33-3.29,2.15-5.37,2.18-.08,0-.15,0-.23,0-4.03-.05-7.34-3.09-7.83-7-.07-.55-.51-1-1.06-1S0,10.45.05,11c.03.34.08.67.15,1,.35,1.74,1.17,3.36,2.37,4.69,1.66,1.84,3.93,3,6.39,3.25,2.46.26,4.93-.41,6.92-1.86,2-1.46,3.39-3.6,3.9-6.02.51-2.42.1-4.94-1.14-7.08-1.24-2.14-3.23-3.74-5.58-4.5-2.35-.76-4.9-.62-7.16.4-1.56.7-2.9,1.78-3.9,3.12v-2c0-.55-.45-1-1-1s-1,.45-1,1v5h5c.55,0,1-.45,1-1s-.45-1-1-1h-1.25Z"/>
</svg>