<?xml version="1.0" encoding="UTF-8"?>
<svg id="Layer_1" data-name="Layer 1" xmlns="http://www.w3.org/2000/svg" viewBox="0 0 5271.22 2414.27">
  <g>
    <path d="M5270.62,2395.35v-2c0-2.8-5-4-9.7-4s-9.7,1.3-9.7,4v2c0,1.8.7,3.6,2,4.9l5,4.9c.3.3.4.6.4,1v6.4c0,.4.2.7.6.8l2.9.9c.5.1,1-.2,1-.8v-7.2c0-.4.2-.7.4-1l5.1-5c1.3-1.3,2-3.1,2-4.9ZM5260.92,2395.25c-4.8,0-7.4-1.3-7.5-1.8h0c.1-.5,2.7-1.8,7.5-1.8s7.3,1.3,7.5,1.8c-.2.5-2.7,1.8-7.5,1.8Z"/>
    <path d="M5265.92,2405.55c-.6,0-1,.4-1,1s.4,1,1,1h4.3c.6,0,1-.4,1-1s-.4-1-1-1h-4.3Z"/>
    <path d="M5270.22,2408.95h-4.3c-.6,0-1,.4-1,1s.4,1,1,1h4.3c.6,0,1-.4,1-1s-.4-1-1-1Z"/>
    <path d="M5270.22,2412.25h-4.3c-.6,0-1,.4-1,1s.4,1,1,1h4.3c.6,0,1-.4,1-1,0-.5-.4-1-1-1Z"/>
  </g>
  <path d="M81.82,13.25C64.62-3.95,37.02-4.35,19.32,11.75l-4.1-4.1c-1.6-1.6-4-2.2-6.2-1.6-2.2.7-3.9,2.5-4.3,4.7L.12,32.15c-.4,2.1.2,4.2,1.7,5.7,1.5,1.5,3.6,2.1,5.7,1.7l21.4-4.5c1.2-.3,2.3-.9,3.1-1.7.7-.7,1.3-1.6,1.6-2.6.6-2.2,0-4.6-1.6-6.2l-3.9-3.9c12.9-11.4,32.5-10.9,44.8,1.4,12.8,12.8,12.8,33.6,0,46.4-12.8,12.8-33.6,12.8-46.4,0-4.1-4.1-7-9.2-8.5-14.8-.9-3.3-4.3-5.3-7.6-4.4-3.3.9-5.3,4.3-4.4,7.6,2,7.7,6.1,14.8,11.8,20.4,17.7,17.7,46.4,17.7,64.1,0,17.5-17.6,17.5-46.4-.1-64Z"/>
</svg>