<?xml version="1.0" encoding="UTF-8"?>
<svg id="Layer_1" data-name="Layer 1" xmlns="http://www.w3.org/2000/svg" viewBox="0 0 15.45 11.5">
  <path d="M7.5.17c-.64-.3-1.4-.19-1.92.29l-2.05,2.14H.75c-.41,0-.74.34-.75.75v4.8c0,.41.34.74.75.75h2.78l2.12,2.21c.31.25.7.39,1.1.39.26,0,.51-.06.75-.17.61-.29,1-.9,1-1.58V1.75c0-.68-.39-1.29-1-1.58ZM7,9.75c0,.1-.05.19-.14.22-.06.02-.14.02-.2,0l-2.27-2.34c-.14-.15-.34-.23-.54-.23H1.5v-3.3h2.35c.2,0,.4-.08.54-.23l2.2-2.31c.08-.06.19-.06.27,0,.08.03.13.1.14.19v8ZM12.45,5.75c0,1.31-.69,2.52-1.81,3.19-.12.07-.25.11-.39.11-.41.01-.75-.31-.76-.72,0-.27.13-.52.37-.66,1.06-.64,1.4-2.01.77-3.07-.19-.31-.45-.58-.77-.77-.38-.18-.54-.62-.36-1,.18-.38.62-.54,1-.36.05.02.1.05.14.09,1.12.67,1.81,1.88,1.81,3.19ZM15.45,5.75c0,2.07-.95,4.03-2.58,5.3-.13.1-.29.16-.46.16-.23,0-.45-.1-.59-.29-.26-.32-.2-.79.12-1.05,2.28-1.78,2.68-5.07.9-7.34-.26-.33-.56-.64-.9-.9-.29-.25-.34-.69-.12-1,.25-.3.68-.36,1-.13,1.64,1.25,2.61,3.19,2.63,5.25Z"/>
</svg>