<?xml version="1.0" encoding="UTF-8"?>
<svg id="Layer_1" data-name="Layer 1" xmlns="http://www.w3.org/2000/svg" viewBox="0 0 15.25 11.5">
  <path d="M7.5.17c-.64-.3-1.4-.19-1.92.29l-2.05,2.14H.75c-.41,0-.74.34-.75.75v4.8c0,.41.34.74.75.75h2.78l2.12,2.21c.31.25.7.39,1.1.39.26,0,.51-.06.75-.17.61-.29,1-.9,1-1.58V1.75c0-.68-.39-1.29-1-1.58ZM7,9.75c0,.1-.05.19-.14.22-.06.02-.14.02-.2,0l-2.27-2.34c-.14-.15-.34-.23-.54-.23H1.5v-3.3h2.35c.2,0,.4-.08.54-.23l2.2-2.31c.08-.06.19-.06.27,0,.08.03.13.1.14.19v8ZM15,4.03l-1.69,1.72,1.72,1.72c.29.29.29.77,0,1.06-.29.29-.77.29-1.06,0l-1.72-1.72-1.72,1.72c-.29.29-.77.29-1.06,0-.29-.29-.29-.77,0-1.06l1.72-1.72-1.72-1.72c-.28-.3-.27-.78.04-1.06.29-.27.73-.27,1.02,0l1.72,1.72,1.72-1.72c.3-.28.78-.27,1.06.04.27.29.27.73,0,1.02h-.03Z"/>
</svg>