<svg width="28" height="28" viewBox="0 0 28 28" fill="none" xmlns="http://www.w3.org/2000/svg">
<path d="M27 0H3C2.20435 0 1.44129 0.316071 0.87868 0.87868C0.316071 1.44129 0 2.20435 0 3V25C0 25.7956 0.316071 26.5587 0.87868 27.1213C1.44129 27.6839 2.20435 28 3 28H26C26.2652 28 26.5196 27.8946 26.7071 27.7071C26.8946 27.5196 27 27.2652 27 27V24C27.2652 24 27.5196 23.8946 27.7071 23.7071C27.8946 23.5196 28 23.2652 28 23V1C28 0.734784 27.8946 0.48043 27.7071 0.292893C27.5196 0.105357 27.2652 0 27 0ZM2 3C2 2.73478 2.10536 2.48043 2.29289 2.29289C2.48043 2.10536 2.73478 2 3 2H4V22H3C2.65938 21.9998 2.32121 22.0576 2 22.171V3ZM25 26H3C2.73478 26 2.48043 25.8946 2.29289 25.7071C2.10536 25.5196 2 25.2652 2 25C2 24.7348 2.10536 24.4804 2.29289 24.2929C2.48043 24.1054 2.73478 24 3 24H25V26ZM26 22H6V2H26V22Z" fill="black"/>
<path d="M15.22 19.625C15.3137 19.742 15.4325 19.8364 15.5676 19.9013C15.7027 19.9662 15.8506 19.9998 16.0005 19.9998C16.1504 19.9998 16.2983 19.9662 16.4334 19.9013C16.5685 19.8364 16.6873 19.742 16.781 19.625C17.314 18.959 22 13.025 22 10C22 8.4087 21.3679 6.88258 20.2426 5.75736C19.1174 4.63214 17.5913 4 16 4C14.4087 4 12.8826 4.63214 11.7574 5.75736C10.6321 6.88258 10 8.4087 10 10C10 13.025 14.686 18.959 15.22 19.625ZM16 6C17.0609 6 18.0783 6.42143 18.8284 7.17157C19.5786 7.92172 20 8.93913 20 10C20 11.522 17.792 14.973 16 17.365C14.208 14.973 12 11.523 12 10C12 9.47471 12.1035 8.95457 12.3045 8.46927C12.5055 7.98396 12.8001 7.54301 13.1716 7.17157C13.9217 6.42143 14.9391 6 16 6Z" fill="black"/>
<path d="M16 12C17.1046 12 18 11.1046 18 10C18 8.89543 17.1046 8 16 8C14.8954 8 14 8.89543 14 10C14 11.1046 14.8954 12 16 12Z" fill="black"/>
</svg>
