<?xml version="1.0" encoding="UTF-8"?>
<svg id="Layer_1" xmlns="http://www.w3.org/2000/svg" version="1.1" viewBox="0 0 110 135">
  <!-- Generator: Adobe Illustrator 29.1.0, SVG Export Plug-In . SVG Version: 2.1.0 Build 142)  -->
  <defs>
    <style>
      .st0 {
        fill-rule: evenodd;
      }
    </style>
  </defs>
  <path class="st0" d="M63.8,20.1l.8,7.7c1.9.6,3.8,1.4,5.5,2.3l6-4.9c1.2-1,3-1,4.3,0,3.4,2.5,6.3,5.5,8.8,8.8.9,1.3.9,3,0,4.3l-4.9,6c.9,1.8,1.7,3.6,2.3,5.5l7.7.8c1.6.2,2.8,1.4,3.1,2.9.6,4.1.6,8.3,0,12.5-.2,1.6-1.5,2.8-3.1,2.9l-7.7.8c-.6,1.9-1.4,3.8-2.3,5.5l4.9,6c1,1.2,1,3,0,4.3-2.5,3.4-5.5,6.3-8.8,8.8-1.3.9-3,.9-4.3,0l-6-4.9c-1.8.9-3.6,1.7-5.5,2.3l-.8,7.7c-.2,1.6-1.4,2.8-2.9,3.1-4.1.6-8.3.6-12.5,0-1.6-.2-2.8-1.5-2.9-3.1l-.8-7.7c-1.9-.6-3.8-1.4-5.5-2.3l-6,4.9c-1.2,1-3,1-4.3,0-3.4-2.5-6.3-5.5-8.8-8.8-.9-1.3-.9-3,0-4.3l4.9-6c-.9-1.8-1.7-3.6-2.3-5.5l-7.7-.8c-1.6-.2-2.9-1.4-3.1-2.9-.6-4.1-.6-8.3,0-12.5.2-1.6,1.5-2.8,3.1-2.9l7.7-.8c.6-1.9,1.4-3.8,2.3-5.5l-4.9-6c-1-1.2-1-3,0-4.3,2.5-3.4,5.5-6.3,8.8-8.8,1.3-.9,3-.9,4.3,0,0,0,6,4.9,6,4.9,1.8-.9,3.6-1.7,5.5-2.3l.8-7.7c.2-1.6,1.4-2.9,2.9-3.1,4.1-.6,8.3-.6,12.5,0,1.6.2,2.8,1.5,2.9,3.1ZM57.2,23.6c-1.7-.1-3.4-.1-5.2,0l-.7,7.3c-.1,1.5-1.2,2.7-2.7,3-2.8.7-5.6,1.8-8,3.3-1.3.8-2.9.7-4-.3l-5.7-4.6c-1.3,1.1-2.5,2.3-3.6,3.6l4.6,5.7c.9,1.2,1,2.8.3,4-1.5,2.5-2.7,5.2-3.3,8-.3,1.4-1.6,2.5-3,2.7l-7.3.7c-.1,1.7-.1,3.4,0,5.2l7.3.7c1.5.1,2.7,1.2,3,2.7.7,2.8,1.8,5.6,3.3,8,.8,1.3.7,2.9-.3,4l-4.6,5.7c1.1,1.3,2.3,2.5,3.6,3.6l5.7-4.6c1.1-.9,2.8-1,4-.3,2.5,1.5,5.2,2.7,8,3.3,1.4.3,2.5,1.6,2.7,3l.7,7.3c1.7.1,3.4.1,5.2,0l.7-7.3c.1-1.5,1.2-2.7,2.7-3,2.8-.7,5.6-1.8,8-3.3,1.3-.8,2.9-.7,4,.3l5.7,4.6c1.3-1.1,2.5-2.3,3.6-3.6l-4.6-5.7c-.9-1.1-1-2.8-.3-4,1.5-2.5,2.7-5.2,3.3-8,.3-1.4,1.6-2.5,3-2.7l7.3-.7c.1-1.7.1-3.4,0-5.2l-7.3-.7c-1.5-.1-2.7-1.2-3-2.7-.7-2.8-1.8-5.6-3.3-8-.8-1.3-.7-2.9.3-4l4.6-5.7c-1.1-1.3-2.3-2.5-3.6-3.6l-5.7,4.6c-1.1.9-2.8,1-4,.3-2.5-1.5-5.2-2.7-8-3.3-1.4-.3-2.5-1.6-2.7-3l-.7-7.3ZM54.6,39.7c11,0,19.9,8.9,19.9,19.9s-8.9,19.9-19.9,19.9-19.9-8.9-19.9-19.9,8.9-19.9,19.9-19.9ZM54.6,46.7c-7.2,0-13,5.8-13,13s5.8,13,13,13,13-5.8,13-13-5.8-13-13-13Z"/>
</svg>