<svg width="66" height="66" viewBox="0 0 66 66" fill="none" xmlns="http://www.w3.org/2000/svg">
<path d="M42.1302 8.80478C45.2567 9.85559 48.1553 11.4234 50.6672 13.4488L56.3056 11.4093C58.1641 10.7398 60.2235 11.463 61.2006 13.0392L65.4571 19.9826C66.4763 21.6267 65.9997 23.7284 64.438 24.8611L59.8188 28.3865C60.4153 31.4401 60.4153 34.5898 59.8188 37.6436L64.504 41.2226C66.0537 42.3949 66.4434 44.4796 65.4662 46.0474L61.2097 52.9739C60.1905 54.6405 58.0263 55.3044 56.2008 54.5812L50.6764 52.5728C48.1645 54.5982 45.2658 56.1745 42.1394 57.2168L41.2191 62.8184C40.8954 64.6998 39.1688 66.0387 37.2114 65.9991L28.7373 65.9963C26.726 65.9963 25.0714 64.6037 24.7866 62.7761L23.8483 57.2027C20.7219 56.1519 17.8473 54.5841 15.3267 52.5587L9.68828 54.5982C7.82979 55.2677 5.75551 54.5445 4.7933 52.9542L0.536778 46.0107C-0.46441 44.3808 -0.0207625 42.3413 1.49898 41.2001L6.18416 37.6211C5.58766 34.5674 5.58766 31.4178 6.18416 28.364L1.49898 24.7849C-0.131678 23.5505 -0.455432 21.3669 0.674674 19.7596C2.05655 17.5139 3.4204 15.2766 4.80228 13.014C5.83647 11.3162 8.08156 10.6609 9.94903 11.4773L15.3356 13.4348C17.8475 11.4094 20.7221 9.83317 23.8572 8.79081L24.7955 3.18919C25.1013 1.32483 26.8069 -0.00851965 28.7462 0.00847446V0H37.2441C39.3753 0 41.1199 1.55362 41.2518 3.52537L42.1302 8.80478ZM32.9939 20.3528C40.4008 20.3528 46.426 26.0307 46.426 33.0109C46.426 39.991 40.4009 45.669 32.9939 45.669C25.572 45.669 19.5619 39.9911 19.5619 33.0109C19.5619 26.0336 25.5719 20.3528 32.9939 20.3528ZM36.8158 29.4118C34.7085 27.44 31.2914 27.44 29.1811 29.4118C27.0888 31.3976 27.0888 34.6179 29.1811 36.6066C31.2884 38.5783 34.7055 38.5783 36.8158 36.6066C38.9081 34.6264 38.9081 31.4061 36.8158 29.4118ZM42.6071 17.3018C41.0574 16.4487 39.3847 15.8188 37.6162 15.4064C36.0964 15.042 34.8705 13.8697 34.6187 12.316L33.8123 7.58163H32.1637L31.3963 12.1183C31.2435 13.655 30.0564 15.0109 28.3658 15.4064C24.8347 16.2368 21.6304 17.9939 19.1183 20.4544V20.4402C18.0452 21.5052 16.3545 21.9006 14.8048 21.3611L10.0057 19.6267C9.73896 20.0758 9.4482 20.5109 9.18143 20.9657L13.1562 24.0023C14.3672 24.9232 14.9427 26.4769 14.4961 27.9825C13.7677 30.3723 13.5578 33.0813 13.9385 35.5951C14.0525 36.3946 14.2053 37.1318 14.4152 37.8409C14.9727 39.3239 14.5111 41.0216 13.1472 42.0499L9.17248 45.0865L9.99679 46.4424L14.5441 44.7984C16.0398 44.1289 17.9043 44.4029 19.1093 45.5979C21.6212 48.0554 24.8286 49.8068 28.3569 50.6459C29.8767 51.0103 31.1026 52.1826 31.3544 53.7362L32.1607 58.4932H33.8094L34.5767 53.9339C34.7296 52.3972 35.9017 51.0413 37.6072 50.6458C41.1384 49.8322 44.3427 48.0583 46.8548 45.5978V45.6119C47.9279 44.5469 49.6186 44.1515 51.1683 44.6911L55.9673 46.4425L56.7916 45.0866L53.1076 42.2843C52.9937 42.1939 52.8738 42.1007 52.7839 42.0329C51.5969 41.0894 51.0394 39.5754 51.474 38.0753C52.2024 35.6855 52.3942 32.9765 52.0315 30.4627C51.9176 29.6632 51.7408 28.926 51.5549 28.2169C50.9974 26.7339 51.441 25.0362 52.8229 24.008L56.7976 20.9713L55.9493 19.6323L51.417 21.2622C49.8973 21.9317 48.0568 21.6577 46.8518 20.4628C45.6198 19.2198 44.1807 18.1549 42.6071 17.3018Z" fill="black"/>
</svg>
