<svg width="100" height="125" viewBox="0 0 100 125" fill="none" xmlns="http://www.w3.org/2000/svg">
<path d="M60.975 49.437C52.454 49.437 43.935 49.437 35.414 49.437C27.603 49.437 19.792 49.437 11.981 49.437C10.453 49.437 10.453 51.807 11.981 51.807C20.035 51.807 28.088 51.807 36.142 51.807C44.433 51.807 52.725 51.807 61.017 51.807C63.911 51.807 66.483 53.414 67.878 55.922C69.434 58.719 68.916 62.319 66.836 64.693C64.676 67.157 61.236 67.873 58.203 66.78C55.216 65.703 53.324 62.653 53.281 59.556C53.26 58.029 50.889 58.027 50.91 59.556C50.971 63.852 53.597 67.509 57.573 69.065C61.501 70.603 66.165 69.203 68.819 66.008C71.559 62.71 71.86 57.983 69.687 54.312C67.893 51.277 64.474 49.437 60.975 49.437Z" fill="black"/>
<path d="M40.078 67.3059C30.631 67.3059 21.184 67.3059 11.737 67.3059C9.873 67.3059 8.009 67.3059 6.146 67.3059C4.618 67.3059 4.618 69.6769 6.146 69.6769C15.236 69.6769 24.327 69.6769 33.417 69.6769C35.302 69.6769 37.188 69.6769 39.072 69.6769C41.065 69.6769 42.885 69.9269 44.606 71.0739C48.008 73.3399 48.794 78.0529 46.769 81.4729C44.7 84.9709 40.072 86.1229 36.525 84.2729C33.98 82.9449 32.45 80.2639 32.41 77.4249C32.389 75.8979 30.018 75.8959 30.04 77.4249C30.1 81.7209 32.727 85.3779 36.702 86.9349C40.63 88.4719 45.295 87.0729 47.948 83.8779C50.689 80.5789 50.989 75.8529 48.816 72.1809C47.013 69.1339 43.589 67.3059 40.078 67.3059Z" fill="black"/>
<path d="M23.8341 32.661C31.8881 32.661 39.9411 32.661 47.9941 32.661C56.2861 32.661 64.5781 32.661 72.8691 32.661C76.6501 32.661 80.1441 30.502 81.8891 27.16C83.8441 23.413 83.1101 18.86 80.3661 15.728C77.6441 12.622 73.0071 11.63 69.2031 13.119C65.3251 14.637 62.8221 18.404 62.7651 22.54C62.7441 24.069 65.1151 24.067 65.1361 22.54C65.1921 18.492 68.3101 15.089 72.3781 14.805C76.3831 14.525 80.0751 17.544 80.5781 21.534C81.0971 25.638 78.2951 29.319 74.3101 30.163C73.3381 30.369 72.2581 30.29 71.2661 30.29C61.1181 30.29 50.9691 30.29 40.8211 30.29C35.1591 30.29 29.4971 30.29 23.8351 30.29C22.3051 30.29 22.3051 32.661 23.8341 32.661Z" fill="black"/>
<path d="M93.8539 42.8721C86.3669 42.8721 78.8789 42.8721 71.3909 42.8721C61.0789 42.8721 50.7669 42.8721 40.4549 42.8721C39.5339 42.8721 38.6129 42.8721 37.6909 42.8721C36.1629 42.8721 36.1629 45.2421 37.6909 45.2421C45.1779 45.2421 52.6659 45.2421 60.1539 45.2421C70.4659 45.2421 80.7779 45.2421 91.0909 45.2421C92.0119 45.2421 92.9329 45.2421 93.8539 45.2421C95.3819 45.2421 95.3819 42.8721 93.8539 42.8721Z" fill="black"/>
</svg>
